<svg height="512" viewBox="0 0 128 128" width="512" xmlns="http://www.w3.org/2000/svg">
    <path
        d="m115.833 101.667h-47a5.006 5.006 0 0 0 -5 5v3.5h-11.166v-19.5h37.166a5.006 5.006 0 0 0 5-5v-9a5.006 5.006 0 0 0 -5-5h-47a5.006 5.006 0 0 0 -5 5v3.5h-11.167v-28h11.167v3.5a5.006 5.006 0 0 0 5 5h47a5.006 5.006 0 0 0 5-5v-9a5.006 5.006 0 0 0 -5-5h-47a5.006 5.006 0 0 0 -5 5v3.5h-11.167v-19.834h36.5a5.006 5.006 0 0 0 5-5v-9a5.006 5.006 0 0 0 -5-5h-47a5.006 5.006 0 0 0 -5 5v9a5.006 5.006 0 0 0 5 5h8.5v50.833a1 1 0 0 0 1 1h12.167v3.5a5.006 5.006 0 0 0 5 5h7.834v20.5a1 1 0 0 0 1 1h12.166v3.5a5.006 5.006 0 0 0 5 5h47a5.006 5.006 0 0 0 5-5v-9a5.006 5.006 0 0 0 -5-4.999z"
        fill="#e6e7e8" />
    <rect fill="#fa759e" height="17" rx="4" width="55" x="8.167" y="8.333" />
    <rect fill="#0089ef" height="17" rx="4" width="55" x="34.833" y="38.667" />
    <path d="m85.833 38.666h-47a4 4 0 0 0 -4 4v3a4 4 0 0 1 4-4h47a4 4 0 0 1 4 4v-3a4 4 0 0 0 -4-4z" fill="#fff" />
    <rect fill="#0089ef" height="17" rx="4" width="55" x="34.833" y="68.667" />
    <rect fill="#6dc9f7" height="17" rx="4" width="55" x="60.834" y="98.667" />
    <g fill="#3a2c60">
        <path d="m23.75 9.333h7.75a1 1 0 0 0 0-2h-7.75a1 1 0 0 0 0 2z" />
        <path
            d="m111.834 97.667h-47a5.006 5.006 0 0 0 -5 5v3.5h-11.167v-19.5h37.166a5.006 5.006 0 0 0 5-5v-9a5.006 5.006 0 0 0 -5-5h-47a5.006 5.006 0 0 0 -5 5v3.5h-11.166v-28h11.166v3.5a5.006 5.006 0 0 0 5 5h47a5.006 5.006 0 0 0 5-5v-9a5.006 5.006 0 0 0 -5-5h-47a5.006 5.006 0 0 0 -5 5v3.5h-11.166v-19.834h36.5a5.006 5.006 0 0 0 5-5v-9a5.006 5.006 0 0 0 -5-5h-23.667a1 1 0 0 0 0 2h23.667a3 3 0 0 1 3 3v9a3 3 0 0 1 -3 3h-47a3 3 0 0 1 -3-3v-9a3 3 0 0 1 3-3h7.833a1 1 0 0 0 0-2h-7.833a5.006 5.006 0 0 0 -5 5v9a5.006 5.006 0 0 0 5 5h8.5v50.833a1 1 0 0 0 1 1h12.166v3.5a5.006 5.006 0 0 0 5 5h7.834v20.5a1 1 0 0 0 1 1h12.167v3.5a5.006 5.006 0 0 0 5 5h47a5.006 5.006 0 0 0 5-5v-9a5.006 5.006 0 0 0 -5-4.999zm-76-55a3 3 0 0 1 3-3h47a3 3 0 0 1 3 3v9a3 3 0 0 1 -3 3h-47a3 3 0 0 1 -3-3zm0 39v-9a3 3 0 0 1 3-3h47a3 3 0 0 1 3 3v9a3 3 0 0 1 -3 3h-47a3 3 0 0 1 -3.001-3zm79 30a3 3 0 0 1 -3 3h-47a3 3 0 0 1 -3-3v-9a3 3 0 0 1 3-3h47a3 3 0 0 1 3 3z" />
    </g>
</svg>
